<svg xmlns="http://www.w3.org/2000/svg" width="1400" height="800" viewBox="0 0 1400 800">
  <rect width="1400" height="800" fill="#ffffff"/>
  <rect x="70" y="70" width="1260" height="660" rx="28" fill="#f8fbff" stroke="#1f3b73" stroke-width="4"/>
  <text x="700" y="135" font-family="Arial, Helvetica, sans-serif" font-size="40" font-weight="700" text-anchor="middle" fill="#102a43">AI-DLC Intent Board</text>
  <text x="700" y="185" font-family="Arial, Helvetica, sans-serif" font-size="24" text-anchor="middle" fill="#52606d">Source of truth for what Nethra should become</text>
  <g font-family="Arial, Helvetica, sans-serif" font-size="28" fill="#102a43">
    <rect x="120" y="250" width="260" height="120" rx="18" fill="#e3f2fd" stroke="#2f80ed" stroke-width="3"/>
    <text x="250" y="304" text-anchor="middle">Product</text><text x="250" y="340" text-anchor="middle">Intent</text>
    <rect x="420" y="250" width="260" height="120" rx="18" fill="#e8f5e9" stroke="#27ae60" stroke-width="3"/>
    <text x="550" y="304" text-anchor="middle">Business</text><text x="550" y="340" text-anchor="middle">Intent</text>
    <rect x="720" y="250" width="260" height="120" rx="18" fill="#fff8e1" stroke="#f2c94c" stroke-width="3"/>
    <text x="850" y="304" text-anchor="middle">User</text><text x="850" y="340" text-anchor="middle">Intent</text>
    <rect x="1020" y="250" width="260" height="120" rx="18" fill="#fce8f3" stroke="#d81b60" stroke-width="3"/>
    <text x="1150" y="304" text-anchor="middle">Functional</text><text x="1150" y="340" text-anchor="middle">Intent</text>
    <rect x="270" y="430" width="260" height="120" rx="18" fill="#ede7f6" stroke="#6f42c1" stroke-width="3"/>
    <text x="400" y="484" text-anchor="middle">Non-Functional</text><text x="400" y="520" text-anchor="middle">Intent</text>
    <rect x="570" y="430" width="260" height="120" rx="18" fill="#e0f7fa" stroke="#00acc1" stroke-width="3"/>
    <text x="700" y="484" text-anchor="middle">Architecture</text><text x="700" y="520" text-anchor="middle">Intent</text>
    <rect x="870" y="430" width="260" height="120" rx="18" fill="#f1f8e9" stroke="#7cb342" stroke-width="3"/>
    <text x="1000" y="484" text-anchor="middle">Delivery</text><text x="1000" y="520" text-anchor="middle">Intent</text>
  </g>
  <text x="700" y="650" font-family="Arial, Helvetica, sans-serif" font-size="24" text-anchor="middle" fill="#52606d">Intent is refined before implementation begins</text>
</svg>